:SAMPLES-PER-SECOND 30
:FULLY-SPECIFIED
:DEGREES
106
root  -14.8725 38.9582 18.7029 -172.069 -71.3906 163.865
RightUpLeg  12.9151 -8.7307 -0.151067
RightLeg  14.246 2.34264 0.661818
RightFoot  -19.4334 -0.770776 -9.02051
RightToes  5.82063e-011 0 -3.6325e-017
Spine  10.7067 -0.91615 10.5217
Spine1  12.2956 2.22311 -7.2708
HEad  6.70354 0.483889 -6.14303
LeftShoulder1  0.0180159 3.45426 -29.8972
LeftArm  -3.23331 11.0356 -43.7653
LeftForeArm  23.8636 -14.6443 -6.09445
LeftHand  -0.0311741 2.69261 0.657472
RightShoulder  -0.458348 -4.93003 25.2689
RightArm  33.4233 11.4221 58.6752
RightForeArm  5.43045 27.6468 5.6795
RightHand  -0.387995 3.30926 -5.41593
LeftUpLeg  -17.3776 -6.69412 -1.44644
LeftLeg  12.6938 -5.16669 -0.950811
LeftFoot  0.729088 0.477135 -4.58158
LeftToes  2.58842e-009 -1.78069e-010 3.24654e-012
107
root  -16.0956 38.7933 18.3454 -171.599 -72.5294 163.762
RightUpLeg  15.5344 -8.97827 -0.366604
RightLeg  12.762 1.56149 0.984962
RightFoot  -20.3615 -0.807801 -8.48365
RightToes  5.82063e-011 0 -3.6325e-017
Spine  9.81298 -1.35959 10.177
Spine1  13.2145 1.68697 -7.62396
HEad  7.53955 0.716056 -5.54918
LeftShoulder1  -0.0331168 3.59524 -30.0483
LeftArm  -2.68619 11.2447 -43.7245
LeftForeArm  23.8044 -15.2747 -5.89321
LeftHand  0.00776841 2.89221 -1.04317
RightShoulder  -0.424277 -4.823 25.2434
RightArm  35.2336 11.7577 58.6751
RightForeArm  3.19172 25.3803 5.25397
RightHand  -0.405093 3.29723 -5.65221
LeftUpLeg  -17.348 -1.8813 -4.04708
LeftLeg  4.70717 -2.74492 -0.110564
LeftFoot  0.453761 0.744922 -7.21977
LeftToes  2.58842e-009 -1.78069e-010 3.24654e-012
108
root  -17.4049 38.523 18.0184 -171.741 -73.8557 164.322
RightUpLeg  17.974 -9.36053 -0.48175
RightLeg  11.9872 1.20791 1.53537
RightFoot  -21.6662 -0.830106 -7.55747
RightToes  5.82063e-011 0 -3.6325e-017
Spine  9.0751 -1.9345 10.6271
Spine1  13.7295 1.27709 -8.54415
HEad  8.42918 0.0404052 -5.13638
LeftShoulder1  -0.0504582 3.64196 -30.4154
LeftArm  -1.81468 11.5626 -43.2973
LeftForeArm  23.4253 -16.1401 -5.64773
LeftHand  0.0190616 2.01449 -1.11259
RightShoulder  -0.473045 -4.96076 25.6118
RightArm  35.4641 10.9506 57.7941
RightForeArm  2.57374 23.5869 5.01708
RightHand  -0.391667 3.14423 -5.56094
LeftUpLeg  -17.6154 -2.06606 -5.33193
LeftLeg  0.760423 6.7522 -0.689498
LeftFoot  1.04538 0.800064 -7.43515
LeftToes  2.58842e-009 -1.78069e-010 3.24654e-012
109
root  -18.7929 38.1639 17.6209 -172.605 -74.7861 165.513
RightUpLeg  20.0757 -10.3101 -0.824747
RightLeg  12.6375 1.66916 2.29671
RightFoot  -23.1054 -0.813952 -6.38284
RightToes  5.82063e-011 0 -3.6325e-017
Spine  8.8005 -2.34538 10.7468
Spine1  13.8061 0.935468 -8.9444
HEad  9.00764 0.422369 -4.51825
LeftShoulder1  -0.0498471 3.64121 -30.1608
LeftArm  -2.51852 12.1678 -43.7211
LeftForeArm  23.1675 -16.2817 -5.4952
LeftHand  -0.0195657 2.22696 0.298442
RightShoulder  -0.504656 -5.04803 25.8619
RightArm  35.0034 10.338 57.3389
RightForeArm  2.93886 20.0691 5.55594
RightHand  -0.349611 2.4205 -5.39648
LeftUpLeg  -18.3008 -2.60254 -6.61607
LeftLeg  2.10734 11.7846 -0.652804
LeftFoot  1.42408 0.701657 -6.21332
LeftToes  2.58842e-009 -1.78069e-010 3.24654e-012
110
root  -20.2543 37.8668 17.0495 -174.107 -73.6571 166.827
RightUpLeg  22.5971 -11.2846 -1.99136
RightLeg  13.8404 4.77018 2.70675
RightFoot  -23.7844 -0.64917 -4.46845
RightToes  5.82063e-011 0 -3.6325e-017
Spine  8.92699 -1.62418 9.53335
Spine1  14.5466 1.65267 -8.68662
HEad  9.4484 0.607499 -3.75909
LeftShoulder1  -0.0712849 3.7 -30.2261
LeftArm  -1.46949 12.6859 -43.2472
LeftForeArm  22.2349 -17.0266 -5.34642
LeftHand  -0.0163671 3.47048 -0.175349
RightShoulder  -0.471833 -4.94546 25.8754
RightArm  29.7247 9.34332 56.7385
RightForeArm  7.4833 15.578 7.4994
RightHand  -0.276459 1.21998 -4.99067
LeftUpLeg  -18.941 -1.28848 -7.77719
LeftLeg  7.22463 9.17139 0.0493926
LeftFoot  3.21326 0.316933 -3.3259
LeftToes  2.58842e-009 -1.78069e-010 3.24654e-012
111
root  -21.7215 37.7391 16.4176 -173.236 -71.1295 165.412
RightUpLeg  24.6059 -11.7531 -4.64751
RightLeg  16.3703 9.24458 3.2037
RightFoot  -23.3088 -0.300786 -1.44362
RightToes  5.82063e-011 0 -3.6325e-017
Spine  9.65839 -0.351407 6.70784
Spine1  15.1076 2.82026 -8.40458
HEad  9.92279 1.45924 -3.33723
LeftShoulder1  -0.113525 3.81194 -30.6327
LeftArm  -1.11188 13.2578 -42.249
LeftForeArm  21.4559 -17.3475 -5.25908
LeftHand  -0.0101303 3.94304 -0.984201
RightShoulder  -0.48549 -4.95609 26.5748
RightArm  24.3501 8.58196 55.5289
RightForeArm  12.618 10.6422 9.33059
RightHand  -0.248833 1.22915 -4.49266
LeftUpLeg  -19.5472 0.0828659 -9.29813
LeftLeg  12.2206 6.83898 0.9297
LeftFoot  8.64071 -1.01151 5.70802
LeftToes  2.58842e-009 -1.78069e-010 3.24654e-012
